<svg width="23" height="28" viewBox="0 0 23 28" fill="none" xmlns="http://www.w3.org/2000/svg">
<path d="M11.5 4.27012C11.4743 4.27012 11.4493 4.27123 11.424 4.27123C11.4487 4.20721 11.4717 4.14234 11.4922 4.07646C11.5842 3.78075 11.6337 3.46565 11.6337 3.14235C11.6337 2.71066 11.5455 2.29538 11.3861 1.91887C11.1474 1.35387 10.7499 0.875626 10.2486 0.537466C9.99833 0.367614 9.72121 0.233554 9.42513 0.141144C9.12936 0.0495336 8.81432 0 8.49102 0C8.06013 0 7.64447 0.0878822 7.26759 0.247295C6.70259 0.486441 6.22472 0.883829 5.88619 1.38476C5.71708 1.63541 5.58228 1.91216 5.49067 2.20819C5.39831 2.50358 5.34872 2.81899 5.34872 3.14229C5.34872 3.57356 5.43703 3.98959 5.59602 4.3654C5.77594 4.79075 6.0456 5.16614 6.3811 5.47048C2.59892 7.35393 0 11.2587 0 15.7705C0 22.1214 5.14867 27.2701 11.5 27.2701C17.8513 27.2701 23 22.1214 23 15.7705C23 9.41879 17.8513 4.27012 11.5 4.27012ZM7.27755 2.62986C7.37625 2.39487 7.54498 2.19189 7.75542 2.04957C7.86077 1.97921 7.97624 1.9226 8.09917 1.88419C8.2221 1.84622 8.3528 1.82534 8.49097 1.82534C8.67536 1.82534 8.84628 1.8622 9.00308 1.92888C9.23882 2.02795 9.44143 2.19631 9.58374 2.40675C9.6549 2.51215 9.71114 2.62762 9.74912 2.7505C9.7871 2.87343 9.80797 3.00413 9.80797 3.14235C9.80797 3.32669 9.77112 3.49766 9.70481 3.65441C9.60537 3.88983 9.43738 4.09281 9.22694 4.23432C9.12153 4.30623 9.00606 4.36173 8.88319 4.40045C8.75989 4.43805 8.62955 4.4585 8.49097 4.4585C8.307 4.4585 8.13603 4.42239 7.97923 4.35613C7.74349 4.25707 7.54088 4.08833 7.39856 3.87752C7.32783 3.77249 7.27116 3.65702 7.23356 3.53414C7.19521 3.41089 7.17433 3.28051 7.17433 3.14235C7.17444 2.95796 7.21129 2.78698 7.27755 2.62986ZM19.6755 20.0089L18.9355 19.5813L18.518 20.3046L19.2573 20.7307C18.902 21.2838 18.4853 21.8034 18.0089 22.2793C17.5332 22.7553 17.0137 23.1721 16.4606 23.5278L16.0338 22.7888L15.3113 23.206L15.7381 23.9456C14.5653 24.5557 13.2677 24.9058 11.9172 24.9654V24.1155H11.0833V24.9654C9.73277 24.9058 8.43483 24.5557 7.26163 23.9456L7.68921 23.206L6.96629 22.7888L6.53987 23.5278C5.98643 23.1721 5.46723 22.7553 4.99123 22.2793C4.51486 21.8034 4.09845 21.2837 3.74282 20.7307L4.4821 20.3046L4.06421 19.5813L3.32456 20.0089C2.71487 18.8353 2.3644 17.5377 2.3048 16.1876H3.15513V15.3526H2.3047C2.3643 14.0028 2.71476 12.7056 3.32445 11.532L4.0641 11.9592L4.48199 11.2362L3.74272 10.8098C4.0984 10.2563 4.5148 9.73719 4.99112 9.26156C5.46713 8.78556 5.98632 8.36846 6.53977 8.01278L6.96618 8.75206L7.68911 8.33496L7.26152 7.59451C8.43472 6.98482 9.73271 6.63511 11.0832 6.57476V7.42503H11.9171V6.57476C13.2676 6.63511 14.5652 6.98482 15.738 7.59451L15.3112 8.33496L16.0337 8.75206L16.4605 8.01278C17.0136 8.36846 17.5331 8.78561 18.0088 9.26156C18.4851 9.73719 18.9019 10.2564 19.2572 10.8098L18.5179 11.2362L18.9354 11.9592L19.6754 11.532C20.2852 12.7056 20.6356 14.0028 20.6952 15.3526H19.8449V16.1876H20.6952C20.6358 17.5378 20.2853 18.8353 19.6755 20.0089Z" fill="white"/>
<path d="M14.5243 14.1149L17.7777 9.75471C17.8205 9.69735 17.8015 9.6035 17.7345 9.53607C17.6674 9.46869 17.5729 9.45005 17.5158 9.49287L13.1556 12.7462C12.8015 12.5518 12.4097 12.4178 11.994 12.3582L11.5 9.14838L11.0066 12.3585C10.3671 12.4498 9.78459 12.7164 9.30859 13.1086L7.89853 12.1689L8.8386 13.5786C8.44644 14.0542 8.17975 14.6375 8.08814 15.2766L4.87842 15.7704L8.08814 16.2639C8.14774 16.6796 8.28143 17.0714 8.47546 17.4255L5.22217 21.7858C5.18009 21.8431 5.19874 21.9374 5.26611 22.0044C5.33354 22.0721 5.42739 22.0904 5.48475 22.0479L9.84499 18.7942C10.1988 18.9886 10.5907 19.1224 11.0066 19.1823L11.5 22.3914L11.9939 19.1824C12.6334 19.0905 13.2163 18.8241 13.6919 18.4323L15.1016 19.372L14.1615 17.962C14.5541 17.4863 14.8204 16.9038 14.9124 16.264L18.1217 15.7705L14.9124 15.2766C14.8525 14.8606 14.7187 14.4691 14.5243 14.1149ZM8.95067 16.7887C8.82444 16.474 8.7544 16.1303 8.7544 15.7705C8.7544 14.2539 9.98384 13.0248 11.5 13.0248C11.8602 13.0248 12.204 13.0949 12.5187 13.2207L10.4874 14.7366C10.4796 14.7426 10.4725 14.7496 10.4665 14.7574L8.95067 16.7887ZM11.5 18.5161C11.1403 18.5161 10.7965 18.4461 10.4814 18.3199L12.5127 16.804C12.5209 16.7977 12.5276 16.791 12.534 16.7828L14.0498 14.7515C14.1753 15.0666 14.2453 15.4103 14.2453 15.7705C14.2453 17.2867 13.0167 18.5161 11.5 18.5161Z" fill="white"/>
</svg>
