<svg width="17" height="14" viewBox="0 0 17 14" fill="none" xmlns="http://www.w3.org/2000/svg">
<mask id="mask0_25_772" style="mask-type:alpha" maskUnits="userSpaceOnUse" x="-2" y="-4" width="21" height="21">
<rect x="-1.7" y="-3.4" width="20.4001" height="20.4001" fill="#30DCF9"/>
</mask>
<g mask="url(#mask0_25_772)">
<path d="M17.0001 1.70001V11.9C17.0001 12.3675 16.8336 12.7678 16.5007 13.1007C16.1678 13.4336 15.7676 13.6 15.3 13.6H1.70001C1.2325 13.6 0.832294 13.4336 0.499377 13.1007C0.166459 12.7678 0 12.3675 0 11.9V1.70001C0 1.2325 0.166459 0.832294 0.499377 0.499377C0.832294 0.166459 1.2325 0 1.70001 0H15.3C15.7676 0 16.1678 0.166459 16.5007 0.499377C16.8336 0.832294 17.0001 1.2325 17.0001 1.70001ZM1.70001 3.40001H15.3V1.70001H1.70001V3.40001ZM1.70001 6.80002V11.9H15.3V6.80002H1.70001Z" fill="#30DCF9"/>
</g>
</svg>
