<svg width="29" height="29" viewBox="0 0 29 29" fill="none" xmlns="http://www.w3.org/2000/svg">
<path d="M26.2003 21.0906L26.089 21.2848L26.1598 21.4972L28.4908 28.4926L20.8516 26.4826L20.6672 26.4341L20.4974 26.5206C18.576 27.4997 16.4228 28.0167 14.2584 28.0167C6.67257 28.0167 0.5 21.8446 0.5 14.2583C0.5 6.67209 6.6721 0.5 14.2584 0.5C21.8446 0.5 28.0167 6.67209 28.0167 14.2583C28.0167 16.659 27.3889 19.0165 26.2003 21.0906ZM5.30001 14.5C5.30001 15.8424 6.39097 16.9333 7.73334 16.9333C9.07572 16.9333 10.1667 15.8424 10.1667 14.5C10.1667 13.1576 9.07572 12.0667 7.73334 12.0667C6.39097 12.0667 5.30001 13.1576 5.30001 14.5ZM11.5833 14.5C11.5833 15.8424 12.6743 16.9333 14.0167 16.9333C15.3591 16.9333 16.45 15.8424 16.45 14.5C16.45 13.1576 15.3591 12.0667 14.0167 12.0667C12.6743 12.0667 11.5833 13.1576 11.5833 14.5ZM17.8667 14.5C17.8667 15.8424 18.9576 16.9333 20.3 16.9333C21.6424 16.9333 22.7334 15.8424 22.7334 14.5C22.7334 13.1576 21.6424 12.0667 20.3 12.0667C18.9576 12.0667 17.8667 13.1576 17.8667 14.5Z" stroke="white"/>
</svg>
