<svg width="37" height="36" viewBox="0 0 37 36" fill="none" xmlns="http://www.w3.org/2000/svg">
<path d="M11 18H8C8.00001 12.201 12.701 7.5 18.5 7.5C24.299 7.5 29 12.201 29 18C29 23.799 24.299 28.5 18.5 28.5V25.5C22.6421 25.5 26 22.1421 26 18C26 13.8579 22.6421 10.5 18.5 10.5C14.3579 10.5 11 13.8579 11 18Z" fill="#808080"/>
<path fill-rule="evenodd" clip-rule="evenodd" d="M13.5714 16.0714L23 13.5L20.4286 22.9286L11 25.5L13.5714 16.0714ZM15.2757 21.2243L16.0147 18.5147L18.7243 17.7757L17.9853 20.4853L15.2757 21.2243Z" fill="#808080"/>
</svg>
