<svg width="20" height="20" viewBox="0 0 20 20" fill="none" xmlns="http://www.w3.org/2000/svg">
<path fill-rule="evenodd" clip-rule="evenodd" d="M13.3327 10C12.2442 10 11.3181 9.30433 10.9749 8.33333H4.16602V6.66667H10.9749C11.3181 5.69567 12.2442 5 13.3327 5C14.7134 5 15.8327 6.11929 15.8327 7.5C15.8327 8.88071 14.7134 10 13.3327 10ZM12.4993 7.5C12.4993 7.96024 12.8724 8.33333 13.3327 8.33333C13.7929 8.33333 14.166 7.96024 14.166 7.5C14.166 7.03976 13.7929 6.66667 13.3327 6.66667C12.8724 6.66667 12.4993 7.03976 12.4993 7.5Z" fill="white"/>
<path fill-rule="evenodd" clip-rule="evenodd" d="M4.16602 12.5C4.16602 13.8807 5.2853 15 6.66602 15C7.75453 15 8.68056 14.3043 9.02376 13.3333H15.8327V11.6667H9.02376C8.68056 10.6957 7.75453 10 6.66602 10C5.2853 10 4.16602 11.1193 4.16602 12.5ZM5.83268 12.5C5.83268 12.9602 6.20578 13.3333 6.66602 13.3333C7.12625 13.3333 7.49935 12.9602 7.49935 12.5C7.49935 12.0398 7.12625 11.6667 6.66602 11.6667C6.20578 11.6667 5.83268 12.0398 5.83268 12.5Z" fill="white"/>
</svg>
