<svg width="36" height="36" viewBox="0 0 36 36" fill="none" xmlns="http://www.w3.org/2000/svg">
<path fill-rule="evenodd" clip-rule="evenodd" d="M16.5 28.5V27H12.75V24H16.5L16.5 19.5C13.6005 19.5 11.25 17.1495 11.25 14.25C11.25 11.3505 13.6005 9 16.5 9L16.5 7.5H19.5V9H23.25V12H19.5L19.5 16.5C22.3995 16.5 24.75 18.8505 24.75 21.75C24.75 24.6495 22.3995 27 19.5 27L19.5 28.5H16.5ZM19.5 24C20.7426 24 21.75 22.9926 21.75 21.75C21.75 20.5074 20.7426 19.5 19.5 19.5V24ZM14.25 14.25C14.25 13.0074 15.2574 12 16.5 12V16.5C15.2574 16.5 14.25 15.4926 14.25 14.25Z" fill="#FFFDFE"/>
</svg>
