<svg width="17" height="17" viewBox="0 0 17 17" fill="none" xmlns="http://www.w3.org/2000/svg">
<mask id="mask0_25_736" style="mask-type:alpha" maskUnits="userSpaceOnUse" x="-2" y="-2" width="21" height="21">
<rect x="-1.7" y="-1.7" width="20.4001" height="20.4001" fill="#30DCF9"/>
</mask>
<g mask="url(#mask0_25_736)">
<path d="M11.9 7.65003C12.1409 7.65003 12.3427 7.56857 12.5057 7.40565C12.6686 7.24273 12.75 7.04086 12.75 6.80002C12.75 6.55919 12.6686 6.35731 12.5057 6.1944C12.3427 6.03148 12.1409 5.95002 11.9 5.95002C11.6592 5.95002 11.4573 6.03148 11.2944 6.1944C11.1315 6.35731 11.05 6.55919 11.05 6.80002C11.05 7.04086 11.1315 7.24273 11.2944 7.40565C11.4573 7.56857 11.6592 7.65003 11.9 7.65003ZM5.10002 5.95002H9.35003V4.25001H5.10002V5.95002ZM2.12501 16.1501C1.64334 14.535 1.16875 12.9236 0.701252 11.3157C0.233751 9.70774 0 8.06086 0 6.37502C0 5.07168 0.453335 3.96668 1.36 3.06001C2.26667 2.15334 3.37168 1.70001 4.67502 1.70001H8.92503C9.33586 1.16167 9.83524 0.743753 10.4232 0.446252C11.0111 0.148751 11.645 0 12.325 0C12.6792 0 12.9802 0.123959 13.2282 0.371876C13.4761 0.619794 13.6 0.920836 13.6 1.275C13.6 1.36 13.5894 1.445 13.5682 1.53001C13.5469 1.61501 13.5221 1.69292 13.4938 1.76376C13.4371 1.91959 13.384 2.07897 13.3344 2.24188C13.2848 2.4048 13.2459 2.57126 13.2175 2.74126L15.1513 4.67502H17.0001V10.6038L14.5988 11.39L13.175 16.1501H8.50003V14.45H6.80002V16.1501H2.12501ZM3.40001 14.45H5.10002V12.75H10.2V14.45H11.9L13.2175 10.0725L15.3 9.37128V6.37502H14.45L11.475 3.40001C11.475 3.11668 11.4927 2.84397 11.5282 2.58188C11.5636 2.3198 11.6167 2.05417 11.6875 1.78501C11.2767 1.89834 10.9155 2.09313 10.6038 2.36938C10.2921 2.64563 10.0654 2.98918 9.92378 3.40001H4.67502C3.85335 3.40001 3.15209 3.69043 2.57126 4.27126C1.99042 4.8521 1.70001 5.55335 1.70001 6.37502C1.70001 7.76336 1.89126 9.11982 2.27376 10.4444C2.65626 11.769 3.03168 13.1042 3.40001 14.45Z" fill="#30DCF9"/>
</g>
</svg>
