<svg width="12" height="13" viewBox="0 0 12 13" fill="none" xmlns="http://www.w3.org/2000/svg">
<mask id="mask0_74_1014" style="mask-type:alpha" maskUnits="userSpaceOnUse" x="-2" y="-2" width="16" height="15">
<rect x="-1.18165" y="-1.18177" width="14.1818" height="14.1818" fill="#D9D9D9"/>
</mask>
<g mask="url(#mask0_74_1014)">
<path d="M0 13V10.6363H11.8181V13H0ZM2.36363 8.2727H3.1909L7.79998 3.6784L6.95793 2.83635L2.36363 7.44543V8.2727ZM1.18181 9.45452V6.94316L7.79998 0.339772C7.90831 0.231439 8.03388 0.147727 8.17668 0.0886361C8.31948 0.0295454 8.46967 0 8.62725 0C8.78482 0 8.93747 0.0295454 9.0852 0.0886361C9.23293 0.147727 9.36588 0.236363 9.48406 0.354544L10.2966 1.18181C10.4147 1.29015 10.5009 1.41818 10.5551 1.5659C10.6092 1.71363 10.6363 1.86628 10.6363 2.02386C10.6363 2.17158 10.6092 2.31685 10.5551 2.45965C10.5009 2.60245 10.4147 2.73295 10.2966 2.85113L3.69317 9.45452H1.18181Z" fill="black"/>
</g>
</svg>
