<svg width="16" height="16" viewBox="0 0 16 16" fill="none" xmlns="http://www.w3.org/2000/svg">
<mask id="mask0_25_763" style="mask-type:alpha" maskUnits="userSpaceOnUse" x="-2" y="-2" width="20" height="20">
<rect x="-1.60003" y="-1.6" width="19.2" height="19.2" fill="#D9D9D9"/>
</mask>
<g mask="url(#mask0_25_763)">
<path d="M0 4V0H4V1.6H1.6V4H0ZM0 16V12H1.6V14.4H4V16H0ZM12 16V14.4H14.4V12H16V16H12ZM14.4 4V1.6H12V0H16V4H14.4ZM12.4 12.4H13.6V13.6H12.4V12.4ZM12.4 10H13.6V11.2H12.4V10ZM11.2 11.2H12.4V12.4H11.2V11.2ZM10 12.4H11.2V13.6H10V12.4ZM8.8 11.2H10V12.4H8.8V11.2ZM11.2 8.8H12.4V10H11.2V8.8ZM10 10H11.2V11.2H10V10ZM8.8 8.8H10V10H8.8V8.8ZM13.6 2.4V7.2H8.8V2.4H13.6ZM7.2 8.8V13.6H2.4V8.8H7.2ZM7.2 2.4V7.2H2.4V2.4H7.2ZM6 12.4V10H3.6V12.4H6ZM6 6V3.6H3.6V6H6ZM12.4 6V3.6H10V6H12.4Z" fill="#30DCF9"/>
</g>
</svg>
