<svg width="56" height="56" viewBox="0 0 56 56" fill="none" xmlns="http://www.w3.org/2000/svg">
<rect width="56" height="56" rx="16" fill="#151A23" fill-opacity="0.36"/>
<path fill-rule="evenodd" clip-rule="evenodd" d="M26.5 38.5V37H22.75V34H26.5L26.5 29.5C23.6005 29.5 21.25 27.1495 21.25 24.25C21.25 21.3505 23.6005 19 26.5 19L26.5 17.5H29.5V19H33.25V22H29.5L29.5 26.5C32.3995 26.5 34.75 28.8505 34.75 31.75C34.75 34.6495 32.3995 37 29.5 37L29.5 38.5H26.5ZM29.5 34C30.7426 34 31.75 32.9926 31.75 31.75C31.75 30.5074 30.7426 29.5 29.5 29.5V34ZM24.25 24.25C24.25 23.0074 25.2574 22 26.5 22V26.5C25.2574 26.5 24.25 25.4926 24.25 24.25Z" fill="#FFFDFE"/>
</svg>
