<svg width="27" height="27" viewBox="0 0 27 27" fill="none" xmlns="http://www.w3.org/2000/svg">
<path d="M4.45829 16.0834L9.62496 21.25L11.4333 19.4417L9.43121 17.375L14.7916 17.375L14.7916 14.7917L9.43121 14.7917L11.4333 12.725L9.62496 10.9167L4.45829 16.0834ZM12.2083 9.62504L12.2083 12.2084L17.5687 12.2084L15.5666 14.275L17.375 16.0834L22.5416 10.9167L17.375 5.75004L15.5666 7.55837L17.5687 9.62504L12.2083 9.62504ZM0.583293 13.5C0.583293 11.7132 0.922355 10.0341 1.60048 8.46254C2.27861 6.89101 3.19892 5.524 4.36142 4.3615C5.52392 3.199 6.89093 2.27869 8.46246 1.60056C10.034 0.922436 11.7132 0.583373 13.5 0.583373C15.2868 0.583374 16.9659 0.922436 18.5375 1.60056C20.109 2.27869 21.476 3.199 22.6385 4.3615C23.801 5.524 24.7213 6.89101 25.3994 8.46254C26.0776 10.0341 26.4166 11.7132 26.4166 13.5C26.4166 15.2868 26.0776 16.966 25.3994 18.5375C24.7213 20.1091 23.801 21.4761 22.6385 22.6386C21.476 23.8011 20.109 24.7214 18.5375 25.3995C16.9659 26.0776 15.2868 26.4167 13.5 26.4167C11.7132 26.4167 10.034 26.0776 8.46246 25.3995C6.89093 24.7214 5.52392 23.8011 4.36142 22.6386C3.19892 21.4761 2.27861 20.1091 1.60048 18.5375C0.922355 16.966 0.583293 15.2868 0.583293 13.5ZM3.16663 13.5C3.16663 16.3848 4.16767 18.8282 6.16975 20.8302C8.17183 22.8323 10.6152 23.8334 13.5 23.8334C16.3847 23.8334 18.8281 22.8323 20.8302 20.8302C22.8323 18.8282 23.8333 16.3848 23.8333 13.5C23.8333 10.6153 22.8323 8.17192 20.8302 6.16983C18.8281 4.16775 16.3847 3.16671 13.5 3.16671C10.6152 3.16671 8.17183 4.16775 6.16975 6.16983C4.16767 8.17192 3.16663 10.6153 3.16663 13.5Z" fill="white"/>
</svg>
