<svg width="15" height="15" viewBox="0 0 15 15" fill="none" xmlns="http://www.w3.org/2000/svg">
<path d="M7.5 0C6.01669 0 4.56659 0.439865 3.33322 1.26397C2.09986 2.08808 1.13857 3.25942 0.570909 4.62987C0.00325268 6.00028 -0.145276 7.50834 0.144112 8.96315C0.433499 10.4181 1.14781 11.7544 2.1967 12.8033C3.2456 13.8522 4.58196 14.5665 6.03684 14.8559C7.49166 15.1453 8.99972 14.9967 10.3702 14.429C11.7406 13.8614 12.9119 12.9002 13.7361 11.6668C14.5601 10.4334 15 8.9834 15 7.49999C15 5.51087 14.2098 3.60322 12.8033 2.1967C11.3968 0.790171 9.48909 0 7.5 0ZM11.1844 5.13749L9.95625 10.9406C9.8625 11.3531 9.61875 11.4469 9.27188 11.2594L7.39688 9.87187L6.45938 10.7437C6.41522 10.8014 6.3585 10.8483 6.29353 10.8808C6.22856 10.9132 6.15703 10.9305 6.08437 10.9312L6.21563 9.05624L9.68437 5.91562C9.84375 5.78437 9.68437 5.70937 9.45937 5.84062L5.20312 8.51249L3.32812 7.93124C2.925 7.80937 2.91562 7.52812 3.4125 7.34062L10.6406 4.52812C10.9969 4.425 11.2969 4.63125 11.1844 5.13749Z" fill="black"/>
</svg>
