<svg width="16" height="11" viewBox="0 0 16 11" fill="none" xmlns="http://www.w3.org/2000/svg">
<path fill-rule="evenodd" clip-rule="evenodd" d="M6.27663 7.53195V3.12266C7.84193 3.85921 9.05425 4.57074 10.4881 5.33785C9.30548 5.9937 7.84193 6.72957 6.27663 7.53195ZM15.0001 0.929723C14.7301 0.573983 14.2699 0.29707 13.7799 0.205393C12.3398 -0.0680751 3.35577 -0.068853 1.91648 0.205393C1.52358 0.279045 1.17373 0.457075 0.87319 0.733678C-0.393142 1.90903 0.00366628 8.21205 0.308901 9.23305C0.437255 9.67498 0.603185 9.9937 0.812153 10.2029C1.08139 10.4795 1.45001 10.67 1.87342 10.7554C3.05914 11.0006 9.16774 11.1378 13.7549 10.7922C14.1775 10.7185 14.5516 10.522 14.8467 10.2336C16.0175 9.06295 15.9377 2.40596 15.0001 0.929723Z" fill="white"/>
</svg>
